<svg viewBox="0 0 1024 1024" xmlns="http://www.w3.org/2000/svg">
  <path d="M574 665.4c-3.1-3.1-8.2-3.1-11.3 0L446.5 781.6c-49.9 49.9-131.1 49.9-181 0-49.9-49.9-49.9-131.1 0-181l116.2-116.2c3.1-3.1 3.1-8.2 0-11.3l-45.3-45.3c-3.1-3.1-8.2-3.1-11.3 0L308.9 644.1c-82.4 82.4-82.4 216.3 0 298.7 82.4 82.4 216.3 82.4 298.7 0l116.2-116.2c3.1-3.1 3.1-8.2 0-11.3L574 665.4z"/>
  <path d="M905.5 275.3c-82.4-82.4-216.3-82.4-298.7 0L490.6 391.5c-3.1 3.1-3.1 8.2 0 11.3l45.3 45.3c3.1 3.1 8.2 3.1 11.3 0L663.4 332c49.9-49.9 131.1-49.9 181 0 49.9 49.9 49.9 131.1 0 181L728.2 629.2c-3.1 3.1-3.1 8.2 0 11.3l45.3 45.3c3.1 3.1 8.2 3.1 11.3 0l116.2-116.2c82.4-82.4 82.4-216.3 0-298.7z"/>
</svg>
