<svg viewBox="0 0 1024 1024" xmlns="http://www.w3.org/2000/svg">
  <path d="M909.6 854.5L649.9 594.8C690.2 542.7 712 479 712 412c0-80.2-31.3-155.4-87.9-212.1-56.6-56.7-132-87.9-212.1-87.9s-155.5 31.3-212.1 87.9C143.2 256.5 112 331.8 112 412c0 80.1 31.3 155.5 87.9 212.1C256.5 680.8 331.8 712 412 712c67 0 130.6-21.8 182.7-62l259.7 259.6c8.2 8.2 20.4 11.5 32 9.2 11.7-2.2 21.7-10.2 26.6-21.1 4.9-10.8 3.7-23.6-3.4-32.2z m-497.6-173.6c-121.3 0-220-98.7-220-220 0-121.3 98.7-220 220-220 121.3 0 220 98.7 220 220 0 121.3-98.7 220-220 220z"/>
</svg>
