<svg class="icon" viewBox="0 0 1024 1024" xmlns="http://www.w3.org/2000/svg" width="200" height="200">
  <path d="M990.8 554.4l-74.4-8.8c-6.4-26.4-15.2-52-26.4-76.4l54-51.6c14.4-13.6 15.2-36 2.4-50.4l-70.8-78.8c-13.6-14.4-36-15.2-50.4-2.4l-55.2 52.4c-23.2-12.8-48-23.2-73.6-31.2l-8.8-74.4C686.4 210.4 668.8 196 648 196h-106c-20.8 0-38.4 14.4-41.6 34.4l-8.8 74.4c-26.4 6.4-52 15.2-76.4 26.4l-51.6-54c-13.6-14.4-36-15.2-50.4-2.4L235 353.6c-14.4 13.6-15.2 36-2.4 50.4l52.4 55.2c-12.8 23.2-23.2 48-31.2 73.6l-74.4 8.8C159.2 494.4 144.8 512 144.8 532.8v106c0 20.8 14.4 38.4 34.4 41.6l74.4 8.8c6.4 26.4 15.2 52 26.4 76.4l-54 51.6c-14.4 13.6-15.2 36-2.4 50.4l70.8 78.8c13.6 14.4 36 15.2 50.4 2.4l55.2-52.4c23.2 12.8 48 23.2 73.6 31.2l8.8 74.4c3.2 20.8 20.8 35.2 41.6 35.2h106c20.8 0 38.4-14.4 41.6-34.4l8.8-74.4c26.4-6.4 52-15.2 76.4-26.4l51.6 54c13.6 14.4 36 15.2 50.4 2.4l78.8-70.8c14.4-13.6 15.2-36 2.4-50.4l-52.4-55.2c12.8-23.2 23.2-48 31.2-73.6l74.4-8.8c20-3.2 34.4-20.8 34.4-41.6v-106c0-20.8-14.4-38.4-34.4-41.6zM512 683.2c-94.4 0-171.2-76.8-171.2-171.2s76.8-171.2 171.2-171.2 171.2 76.8 171.2 171.2-76.8 171.2-171.2 171.2z" fill="currentColor"/>
</svg>
